<svg xmlns="http://www.w3.org/2000/svg" viewBox="0 0 48 48" fill="none">
  <rect width="48" height="48" rx="12" fill="#25d366"/>
  <path d="M14 35.5l1.8-6A12.5 12.5 0 1 1 24 37a12.4 12.4 0 0 1-5-.99L14 35.5Z" fill="#ffffff"/>
  <path d="M19 19.2c.4-.9.8-1 1.5-1h1c.4 0 .8.2 1 .7l1 2.4c.2.5.1 1-.2 1.4l-.9 1.1c.8 1.6 2 2.8 3.6 3.6l1.1-.9c.4-.3.9-.4 1.4-.2l2.4 1c.5.2.7.6.7 1v1c0 .7-.1 1.1-1 1.5-.8.4-2 .4-3.6-.1-2.4-.8-5.1-2.7-7.2-4.8-2.1-2.1-4-4.8-4.8-7.2-.5-1.6-.5-2.8-.1-3.6Z" fill="#25d366"/>
</svg>
